<svg width="536" height="566" viewBox="0 0 536 566" fill="none" xmlns="http://www.w3.org/2000/svg">
<g clip-path="url(#clip0_363_66)">
<rect width="536" height="566" fill="#C1EDF5"/>
<path d="M0 0H536V566H0V0Z" fill="#C1EDF5"/>
<path d="M641 -0.5C641 57.2138 594.214 104 536.5 104C478.786 104 432 57.2138 432 -0.5C432 -58.2138 478.786 -105 536.5 -105C594.214 -105 641 -58.2138 641 -0.5Z" fill="#00A5DF"/>
<path d="M594 -0.5C594 31.2564 568.256 57 536.5 57C504.744 57 479 31.2564 479 -0.5C479 -32.2564 504.744 -58 536.5 -58C568.256 -58 594 -32.2564 594 -0.5Z" fill="#166FB1"/>
<path d="M105 565.5C105 623.214 58.2138 670 0.5 670C-57.2138 670 -104 623.214 -104 565.5C-104 507.786 -57.2138 461 0.5 461C58.2138 461 105 507.786 105 565.5Z" fill="#00A5DF"/>
<path d="M105 356.5C105 370.223 102.297 383.812 97.0454 396.49C91.7938 409.169 84.0964 420.689 74.3927 430.393C64.6889 440.096 53.1689 447.794 40.4904 453.045C27.8119 458.297 14.2231 461 0.5 461C-13.2231 461 -26.8119 458.297 -39.4904 453.045C-52.1689 447.794 -63.6889 440.096 -73.3927 430.393C-83.0964 420.689 -90.7938 409.169 -96.0454 396.49C-101.297 383.812 -104 370.223 -104 356.5H105Z" fill="white"/>
<path d="M641 104.5C641 118.223 638.297 131.812 633.045 144.49C627.794 157.169 620.096 168.689 610.393 178.393C600.689 188.096 589.169 195.794 576.49 201.045C563.812 206.297 550.223 209 536.5 209C522.777 209 509.188 206.297 496.51 201.045C483.831 195.794 472.311 188.096 462.607 178.393C452.904 168.689 445.206 157.169 439.955 144.49C434.703 131.812 432 118.223 432 104.5L641 104.5Z" fill="white"/>
<path d="M58 565.5C58 597.256 32.2564 623 0.5 623C-31.2564 623 -57 597.256 -57 565.5C-57 533.744 -31.2564 508 0.5 508C32.2564 508 58 533.744 58 565.5Z" fill="#166FB1"/>
</g>
<defs>
<clipPath id="clip0_363_66">
<rect width="536" height="566" fill="white"/>
</clipPath>
</defs>
</svg>
